<svg version="1.1" viewBox="0.0 0.0 860.4041994750656 169.82939632545933" fill="none" stroke="none" stroke-linecap="square" stroke-miterlimit="10" xmlns:xlink="http://www.w3.org/1999/xlink" xmlns="http://www.w3.org/2000/svg"><clipPath id="p.0"><path d="m0 0l860.4042 0l0 169.82939l-860.4042 0l0 -169.82939z" clip-rule="nonzero"/></clipPath><g clip-path="url(#p.0)"><path fill="#000000" fill-opacity="0.0" d="m0 0l860.4042 0l0 169.82939l-860.4042 0z" fill-rule="evenodd"/><path fill="#000000" fill-opacity="0.0" d="m7.5065618 9.383203l843.5275 0l0 166.07874l-843.5275 0z" fill-rule="evenodd"/><path fill="#ffffff" d="m70.85031 44.011948l0 10.46875l-20.453125 0l0 56.0625l-12.1875 0l0 -56.0625l-20.453125 0l0 -10.46875l53.09375 0zm8.630844 66.53125l0 -72.578125l11.625 -1.921875l0 24.875q1.90625 -0.671875 4.453125 -1.15625q2.546875 -0.484375 5.046875 -0.484375q6.046875 0 10.03125 1.6875q3.984375 1.671875 6.375 4.703125q2.40625 3.015625 3.40625 7.25q1.015625 4.21875 1.015625 9.40625l0 28.21875l-11.609375 0l0 -26.40625q0 -4.03125 -0.53125 -6.859375q-0.53125 -2.828125 -1.734375 -4.59375q-1.203125 -1.78125 -3.21875 -2.59375q-2.015625 -0.828125 -4.984375 -0.828125q-2.3125 0 -4.71875 0.484375q-2.390625 0.484375 -3.53125 0.859375l0 39.9375l-11.625 0zm53.09073 -24.859375q0 -6.625 1.96875 -11.609375q1.96875 -5.0 5.234375 -8.3125q3.265625 -3.3125 7.484375 -4.984375q4.21875 -1.6875 8.640625 -1.6875q10.359375 0 16.171875 6.4375q5.8125 6.421875 5.8125 19.1875q0 0.96875 -0.046875 2.171875q-0.046875 1.1875 -0.140625 2.15625l-33.125 0q0.484375 6.046875 4.265625 9.359375q3.796875 3.3125 11.0 3.3125q4.21875 0 7.71875 -0.765625q3.515625 -0.78125 5.53125 -1.640625l1.53125 9.5q-0.953125 0.484375 -2.640625 1.015625q-1.671875 0.53125 -3.84375 0.953125q-2.15625 0.4375 -4.65625 0.71875q-2.484375 0.296875 -5.078125 0.296875q-6.625 0 -11.53125 -1.96875q-4.890625 -1.96875 -8.0625 -5.46875q-3.15625 -3.515625 -4.703125 -8.265625q-1.53125 -4.75 -1.53125 -10.40625zm33.6875 -5.1875q0 -2.40625 -0.671875 -4.5625q-0.671875 -2.15625 -1.96875 -3.734375q-1.28125 -1.59375 -3.15625 -2.5q-1.875 -0.921875 -4.46875 -0.921875q-2.6875 0 -4.703125 1.015625q-2.015625 1.0 -3.40625 2.640625q-1.390625 1.625 -2.171875 3.75q-0.765625 2.109375 -1.046875 4.3125l21.59375 0zm66.91835 30.8125q-5.28125 0 -10.65625 -0.34375q-5.375 -0.328125 -9.40625 -1.375l0 -64.609375q2.109375 -0.390625 4.5 -0.71875q2.40625 -0.34375 4.90625 -0.53125q2.5 -0.203125 4.9375 -0.296875q2.453125 -0.09375 4.65625 -0.09375q6.0625 0 11.234375 0.921875q5.1875 0.90625 8.96875 3.015625q3.796875 2.109375 5.90625 5.578125q2.125 3.453125 2.125 8.53125q0 4.703125 -2.265625 8.0625q-2.25 3.359375 -6.28125 5.375q6.046875 2.015625 8.921875 5.953125q2.890625 3.9375 2.890625 9.984375q0 10.28125 -7.5 15.421875q-7.484375 5.125 -22.9375 5.125zm-8.15625 -30.71875l0 20.25q2.015625 0.203125 4.3125 0.296875q2.3125 0.09375 4.234375 0.09375q3.734375 0 6.953125 -0.46875q3.21875 -0.484375 5.5625 -1.6875q2.359375 -1.203125 3.75 -3.21875q1.390625 -2.015625 1.390625 -5.1875q0 -5.65625 -4.125 -7.859375q-4.125 -2.21875 -11.421875 -2.21875l-10.65625 0zm0 -9.5l8.546875 0q6.90625 0 10.84375 -1.96875q3.9375 -1.96875 3.9375 -7.0625q0 -4.796875 -4.078125 -6.8125q-4.078125 -2.015625 -10.609375 -2.015625q-2.78125 0 -4.953125 0.09375q-2.15625 0.09375 -3.6875 0.296875l0 17.46875zm91.775116 37.921875q-3.359375 0.859375 -8.734375 1.765625q-5.375 0.921875 -11.8125 0.921875q-6.046875 0 -10.125 -1.71875q-4.078125 -1.734375 -6.53125 -4.8125q-2.453125 -3.078125 -3.515625 -7.34375q-1.046875 -4.265625 -1.046875 -9.359375l0 -28.125l11.625 0l0 26.296875q0 8.0625 2.34375 11.53125q2.359375 3.453125 8.203125 3.453125q2.125 0 4.46875 -0.1875q2.359375 -0.203125 3.5 -0.484375l0 -40.609375l11.625 0l0 48.671875zm14.780457 1.53125l0 -72.578125l11.625 -1.921875l0 24.875q1.90625 -0.671875 4.453125 -1.15625q2.546875 -0.484375 5.046875 -0.484375q6.046875 0 10.03125 1.6875q3.984375 1.671875 6.375 4.703125q2.40625 3.015625 3.40625 7.25q1.015625 4.21875 1.015625 9.40625l0 28.21875l-11.609375 0l0 -26.40625q0 -4.03125 -0.53125 -6.859375q-0.53125 -2.828125 -1.734375 -4.59375q-1.203125 -1.78125 -3.21875 -2.59375q-2.015625 -0.828125 -4.984375 -0.828125q-2.3125 0 -4.71875 0.484375q-2.390625 0.484375 -3.53125 0.859375l0 39.9375l-11.625 0zm73.34073 0.953125q-5.171875 -0.09375 -8.59375 -1.140625q-3.40625 -1.0625 -5.421875 -3.03125q-2.015625 -1.96875 -2.828125 -4.890625q-0.8125 -2.9375 -0.8125 -6.671875l0 -57.796875l11.609375 -1.921875l0 57.515625q0 2.109375 0.328125 3.546875q0.34375 1.4375 1.203125 2.453125q0.875 1.0 2.359375 1.53125q1.484375 0.53125 3.796875 0.8125l-1.640625 9.59375zm8.261993 -25.8125q0 -6.625 1.96875 -11.609375q1.96875 -5.0 5.234375 -8.3125q3.265625 -3.3125 7.484375 -4.984375q4.21875 -1.6875 8.640625 -1.6875q10.359375 0 16.171875 6.4375q5.8125 6.421875 5.8125 19.1875q0 0.96875 -0.046875 2.171875q-0.046875 1.1875 -0.140625 2.15625l-33.125 0q0.484375 6.046875 4.265625 9.359375q3.796875 3.3125 11.0 3.3125q4.21875 0 7.71875 -0.765625q3.515625 -0.78125 5.53125 -1.640625l1.53125 9.5q-0.953125 0.484375 -2.640625 1.015625q-1.671875 0.53125 -3.84375 0.953125q-2.15625 0.4375 -4.65625 0.71875q-2.484375 0.296875 -5.078125 0.296875q-6.625 0 -11.53125 -1.96875q-4.890625 -1.96875 -8.0625 -5.46875q-3.15625 -3.515625 -4.703125 -8.265625q-1.53125 -4.75 -1.53125 -10.40625zm33.6875 -5.1875q0 -2.40625 -0.671875 -4.5625q-0.671875 -2.15625 -1.96875 -3.734375q-1.28125 -1.59375 -3.15625 -2.5q-1.875 -0.921875 -4.46875 -0.921875q-2.6875 0 -4.703125 1.015625q-2.015625 1.0 -3.40625 2.640625q-1.390625 1.625 -2.171875 3.75q-0.765625 2.109375 -1.046875 4.3125l21.59375 0zm52.519104 -9.703125q-1.4375 -0.46875 -3.984375 -1.0q-2.546875 -0.53125 -5.90625 -0.53125q-1.921875 0 -4.078125 0.390625q-2.15625 0.375 -3.015625 0.671875l0 40.21875l-11.625 0l0 -47.8125q3.359375 -1.25 8.390625 -2.34375q5.046875 -1.109375 11.1875 -1.109375q1.15625 0 2.6875 0.15625q1.546875 0.140625 3.078125 0.375q1.53125 0.234375 2.96875 0.578125q1.453125 0.328125 2.3125 0.625l-2.015625 9.78125zm51.352875 -27.453125q14.40625 0 22.03125 5.28125q7.640625 5.28125 7.640625 16.125q0 13.546875 -13.34375 18.34375q1.828125 2.203125 4.125 5.375q2.3125 3.171875 4.703125 6.875q2.40625 3.6875 4.609375 7.578125q2.203125 3.875 3.9375 7.625l-13.53125 0q-1.828125 -3.453125 -3.9375 -6.953125q-2.109375 -3.515625 -4.28125 -6.828125q-2.15625 -3.3125 -4.265625 -6.234375q-2.109375 -2.921875 -3.9375 -5.234375q-1.34375 0.09375 -2.3125 0.09375q-0.953125 0 -1.8125 0l-5.859375 0l0 25.15625l-12.09375 0l0 -65.5625q4.421875 -0.96875 9.40625 -1.296875q5.0 -0.34375 8.921875 -0.34375zm0.875 10.46875q-3.84375 0 -7.109375 0.28125l0 21.515625l5.28125 0q4.421875 0 7.78125 -0.484375q3.359375 -0.484375 5.609375 -1.734375q2.25 -1.25 3.40625 -3.359375q1.15625 -2.109375 1.15625 -5.375q0 -3.0625 -1.15625 -5.171875q-1.15625 -2.125 -3.3125 -3.375q-2.15625 -1.25 -5.140625 -1.765625q-2.96875 -0.53125 -6.515625 -0.53125zm38.87744 31.875q0 -6.625 1.96875 -11.609375q1.96875 -5.0 5.234375 -8.3125q3.265625 -3.3125 7.484375 -4.984375q4.21875 -1.6875 8.640625 -1.6875q10.359375 0 16.171875 6.4375q5.8125 6.421875 5.8125 19.1875q0 0.96875 -0.046875 2.171875q-0.046875 1.1875 -0.140625 2.15625l-33.125 0q0.484375 6.046875 4.265625 9.359375q3.796875 3.3125 11.0 3.3125q4.21875 0 7.71875 -0.765625q3.515625 -0.78125 5.53125 -1.640625l1.53125 9.5q-0.953125 0.484375 -2.640625 1.015625q-1.671875 0.53125 -3.84375 0.953125q-2.15625 0.4375 -4.65625 0.71875q-2.484375 0.296875 -5.078125 0.296875q-6.625 0 -11.53125 -1.96875q-4.890625 -1.96875 -8.0625 -5.46875q-3.15625 -3.515625 -4.703125 -8.265625q-1.53125 -4.75 -1.53125 -10.40625zm33.6875 -5.1875q0 -2.40625 -0.671875 -4.5625q-0.671875 -2.15625 -1.96875 -3.734375q-1.28125 -1.59375 -3.15625 -2.5q-1.875 -0.921875 -4.46875 -0.921875q-2.6875 0 -4.703125 1.015625q-2.015625 1.0 -3.40625 2.640625q-1.390625 1.625 -2.171875 3.75q-0.765625 2.109375 -1.046875 4.3125l21.59375 0zm57.22223 5.1875q0 -7.78125 -3.5 -12.09375q-3.5 -4.328125 -11.28125 -4.328125q-1.640625 0 -3.421875 0.15625q-1.765625 0.140625 -3.484375 0.609375l0 28.703125q1.53125 1.0625 4.0625 1.984375q2.546875 0.90625 5.4375 0.90625q6.328125 0 9.25 -4.3125q2.9375 -4.328125 2.9375 -11.625zm11.90625 -0.203125q0 5.765625 -1.5 10.5625q-1.484375 4.796875 -4.265625 8.265625q-2.78125 3.453125 -6.953125 5.375q-4.171875 1.921875 -9.453125 1.921875q-3.5625 0 -6.546875 -0.875q-2.96875 -0.859375 -4.875 -1.921875l0 19.5l-11.625 0l0 -66.34375q3.546875 -0.953125 8.734375 -1.8125q5.1875 -0.875 10.953125 -0.875q5.953125 0 10.65625 1.828125q4.703125 1.828125 8.015625 5.234375q3.3125 3.40625 5.078125 8.25q1.78125 4.84375 1.78125 10.890625zm57.403503 -0.09375q0 5.953125 -1.734375 10.859375q-1.71875 4.890625 -4.890625 8.34375q-3.15625 3.453125 -7.625 5.375q-4.46875 1.921875 -9.84375 1.921875q-5.375 0 -9.796875 -1.921875q-4.40625 -1.921875 -7.578125 -5.375q-3.171875 -3.453125 -4.953125 -8.34375q-1.765625 -4.90625 -1.765625 -10.859375q0 -5.953125 1.765625 -10.796875q1.78125 -4.84375 5.0 -8.296875q3.21875 -3.46875 7.625 -5.328125q4.421875 -1.875 9.703125 -1.875q5.28125 0 9.734375 1.875q4.46875 1.859375 7.640625 5.328125q3.171875 3.453125 4.9375 8.296875q1.78125 4.84375 1.78125 10.796875zm-11.90625 0q0 -7.484375 -3.21875 -11.84375q-3.203125 -4.375 -8.96875 -4.375q-5.765625 0 -8.984375 4.375q-3.203125 4.359375 -3.203125 11.84375q0 7.59375 3.203125 12.015625q3.21875 4.40625 8.984375 4.40625q5.765625 0 8.96875 -4.40625q3.21875 -4.421875 3.21875 -12.015625zm52.517334 -14.59375q-1.4375 -0.46875 -3.984375 -1.0q-2.546875 -0.53125 -5.90625 -0.53125q-1.921875 0 -4.078125 0.390625q-2.15625 0.375 -3.015625 0.671875l0 40.21875l-11.625 0l0 -47.8125q3.359375 -1.25 8.390625 -2.34375q5.046875 -1.109375 11.1875 -1.109375q1.15625 0 2.6875 0.15625q1.546875 0.140625 3.078125 0.375q1.53125 0.234375 2.96875 0.578125q1.453125 0.328125 2.3125 0.625l-2.015625 9.78125zm9.500488 -23.703125l11.625 -1.921875l0 15.171875l17.84375 0l0 9.6875l-17.84375 0l0 20.453125q0 6.046875 1.90625 8.640625q1.921875 2.59375 6.53125 2.59375q3.171875 0 5.609375 -0.671875q2.453125 -0.671875 3.90625 -1.25l1.90625 9.21875q-2.015625 0.859375 -5.28125 1.765625q-3.25 0.921875 -7.671875 0.921875q-5.375 0 -8.984375 -1.4375q-3.59375 -1.453125 -5.703125 -4.1875q-2.109375 -2.734375 -2.984375 -6.609375q-0.859375 -3.890625 -0.859375 -8.890625l0 -43.484375z" fill-rule="nonzero"/><path fill="#ffffff" d="m40.57218 51.71002l0 10.186768l19.902206 0l0 54.552418l11.859222 0l0 -54.552418l19.902206 0l0 -10.186768z" fill-rule="evenodd"/><path fill="#ffffff" d="m111.946045 43.955914l-11.311874 1.8701057l0 70.623184l11.311874 0l0 -38.861755c0.73992157 -0.24326324 1.8853073 -0.5220032 3.4361343 -0.8362274c1.5609436 -0.3142166 3.091484 -0.47132874 4.5916443 -0.47132874c1.9258499 0 3.5425644 0.2686081 4.8501205 0.8058243c1.3075485 0.5270767 2.3515625 1.36837 3.1320496 2.52388c0.78048706 1.1453781 1.3430328 2.6353836 1.6876526 4.4700165c0.34461975 1.8346329 0.51693726 4.0595016 0.51693726 6.674614l0 25.694977l11.296677 0l0 -27.458656c0 -3.365181 -0.32940674 -6.4161453 -0.988266 -9.152885c-0.6486969 -2.7468796 -1.7535248 -5.0984573 -3.314499 -7.054718c-1.550827 -1.9664001 -3.6185913 -3.4918823 -6.203293 -4.5764465c-2.5847015 -1.094696 -5.8383865 -1.6420441 -9.761047 -1.6420441c-1.6217651 0 -3.2587357 0.15711212 -4.9109344 0.47132874c-1.6521759 0.31422424 -3.0965652 0.68925476 -4.3331757 1.1251068l0 -24.204975z" fill-rule="evenodd"/><path fill="#ffffff" d="m175.08589 75.80856c1.6825714 0 3.1320496 0.29901886 4.3483734 0.89704895c1.2163391 0.5878906 2.2400818 1.3987808 3.071228 2.4326553c0.8413086 1.0237427 1.4798889 2.2350082 1.9157257 3.633789c0.4358368 1.3987808 0.6537781 2.8786469 0.6537781 4.4396057l-21.0121 0c0.18244934 -1.429184 0.52201843 -2.8279648 1.0186768 -4.1963425c0.5068054 -1.3785019 1.2112732 -2.5948334 2.1133728 -3.6489868c0.90211487 -1.0642929 2.0069427 -1.9207916 3.314499 -2.5694962c1.3075562 -0.658844 2.8330383 -0.9882736 4.5764465 -0.9882736zm-0.0912323 -9.426559c-2.8684998 0 -5.6711426 0.547348 -8.407883 1.6420441c-2.73674 1.0845642 -5.164322 2.701271 -7.282776 4.8501205c-2.118454 2.1488495 -3.8162384 4.845047 -5.093384 8.0886c-1.2771454 3.2334137 -1.9157257 6.99897 -1.9157257 11.296669c0 3.6692657 0.49665833 7.0445786 1.4900055 10.125946c1.003479 3.0813675 2.5289612 5.7623672 4.5764465 8.042984c2.0576324 2.270485 4.6727448 4.044304 7.845337 5.3214493c3.1827393 1.2771454 6.922943 1.9157181 11.220642 1.9157181c1.6825867 0 3.3296967 -0.09629059 4.941345 -0.2888794c1.6217651 -0.18244934 3.1320496 -0.41558075 4.5308228 -0.6993866c1.4089203 -0.273674 2.6556702 -0.58283234 3.740219 -0.9274521c1.094696 -0.34462738 1.9511871 -0.6740494 2.5695038 -0.988266l-1.4900055 -9.244118c-1.3075562 0.5574875 -3.101654 1.0896301 -5.382263 1.5964355c-2.2704926 0.49666595 -4.7740936 0.74500275 -7.510849 0.74500275c-4.6727448 0 -8.240631 -1.0744247 -10.703705 -3.2232742c-2.452942 -2.148857 -3.8365173 -5.1846085 -4.1507263 -9.107277l32.232758 0c0.060821533 -0.62844086 0.10643005 -1.3278275 0.13684082 -2.0981674c0.030410767 -0.78047943 0.04560852 -1.4849396 0.04560852 -2.1133728c0 -8.281189 -1.885315 -14.5047455 -5.6559296 -18.670677c-3.77063 -4.1760635 -9.016052 -6.264099 -15.736282 -6.264099z" fill-rule="evenodd"/><path fill="#ffffff" d="m250.66217 60.680454c4.2368927 0 7.6781006 0.6537781 10.323608 1.9613342c2.6455078 1.3075562 3.9682617 3.5172234 3.9682617 6.6290016c0 3.3043594 -1.2771301 5.5951233 -3.831421 6.8722687c-2.5542908 1.2771454 -6.071518 1.9157181 -10.551666 1.9157181l-8.316666 0l0 -16.998219c0.9933319 -0.13177109 2.189392 -0.22806168 3.5881805 -0.28887558c1.4089203 -0.06081772 3.0154877 -0.091228485 4.819702 -0.091228485zm1.9613342 26.622433c4.733551 0 8.438293 0.7196655 11.114227 2.158989c2.6759338 1.429184 4.0138855 3.9784088 4.0138855 7.6476746c0 2.0576324 -0.4510498 3.740219 -1.3531799 5.0477753c-0.9020996 1.3075562 -2.1184387 2.3515701 -3.6489868 3.1320496c-1.5204163 0.78047943 -3.324646 1.3278275 -5.4126587 1.6420441c-2.0880432 0.30408478 -4.3433075 0.45612335 -6.7658386 0.45612335c-1.2467499 0 -2.6201782 -0.030403137 -4.120331 -0.09122467c-1.4900055 -0.060813904 -2.8887787 -0.15711212 -4.196335 -0.2888794l0 -19.704552zm-3.4665375 -36.246647c-1.4291992 0 -2.9394684 0.030410767 -4.530838 0.09122467c-1.5812225 0.06081772 -3.182724 0.15711212 -4.8045044 0.2888794c-1.6217804 0.12163544 -3.21315 0.29394913 -4.7740936 0.5169411c-1.550827 0.2128563 -3.0104218 0.4459877 -4.378784 0.6993904l0 62.869076c2.615097 0.6791153 5.6660767 1.1251068 9.152878 1.3379669c3.4868164 0.22299194 6.943207 0.33448792 10.369217 0.33448792c10.024582 0 17.464462 -1.6623154 22.319656 -4.9869537c4.865326 -3.3347778 7.298004 -8.336929 7.298004 -15.006477c0 -3.9226608 -0.93759155 -7.1611404 -2.8127747 -9.715439c-1.8650513 -2.5542908 -4.7588806 -4.485214 -8.681549 -5.7927704c2.6151123 -1.3075562 4.652466 -3.0509644 6.1120605 -5.2302246c1.4697266 -2.1792526 2.2045898 -4.794365 2.2045898 -7.8453293c0 -3.2942276 -0.6892395 -6.0613823 -2.0677795 -8.301456c-1.3683472 -2.2502098 -3.2840881 -4.0595016 -5.7471313 -5.4278717c-2.452942 -1.3683739 -5.3619995 -2.3465042 -8.727173 -2.9343987c-3.355072 -0.5980301 -6.998993 -0.89704514 -10.931778 -0.89704514z" fill-rule="evenodd"/><path fill="#ffffff" d="m290.91672 67.598335l0 27.367432c0 3.304367 0.3395691 6.340126 1.0186768 9.107277c0.68927 2.7671509 1.8295593 5.149132 3.420929 7.1459427c1.5913696 1.9968109 3.7098083 3.5577621 6.3553467 4.682869c2.6455078 1.114975 5.929596 1.6724548 9.852264 1.6724548c4.176056 0 8.007507 -0.29901123 11.494324 -0.8970413c3.4868164 -0.5878906 6.3198547 -1.1605759 8.499115 -1.718071l0 -47.360863l-11.31189 0l0 39.515533c-0.7399292 0.18244934 -1.8751526 0.33956146 -3.4057312 0.47132874c-1.5203857 0.12163544 -2.9698486 0.18244934 -4.348358 0.18244934c-3.7908936 0 -6.4516296 -1.1200333 -7.9821777 -3.360115c-1.5204163 -2.250206 -2.2806091 -5.990425 -2.2806091 -11.220642l0 -25.588554z" fill-rule="evenodd"/><path fill="#ffffff" d="m357.2516 43.955914l-11.311859 1.8701057l0 70.623184l11.311859 0l0 -38.861755c0.7399292 -0.24326324 1.885315 -0.5220032 3.4361267 -0.8362274c1.5609741 -0.3142166 3.0915222 -0.47132874 4.5916443 -0.47132874c1.9258728 0 3.542572 0.2686081 4.850128 0.8058243c1.3075562 0.5270767 2.3515625 1.36837 3.1320496 2.52388c0.78048706 1.1453781 1.3430481 2.6353836 1.6876526 4.4700165c0.344635 1.8346329 0.51693726 4.0595016 0.51693726 6.674614l0 25.694977l11.296692 0l0 -27.458656c0 -3.365181 -0.32943726 -6.4161453 -0.98828125 -9.152885c-0.64871216 -2.7468796 -1.75354 -5.0984573 -3.3145142 -7.054718c-1.5508118 -1.9664001 -3.6185608 -3.4918823 -6.2032776 -4.5764465c-2.5846863 -1.094696 -5.838379 -1.6420441 -9.761047 -1.6420441c-1.6217651 0 -3.2587585 0.15711212 -4.910919 0.47132874c-1.6521912 0.31422424 -3.0965881 0.68925476 -4.333191 1.1251068l0 -24.204975z" fill-rule="evenodd"/><path fill="#ffffff" d="m411.42096 43.955914l-11.296661 1.8701057l0 56.24008c0 2.4225235 0.2635193 4.5865784 0.7906189 6.4921646c0.5270691 1.8954391 1.444397 3.4817429 2.7519531 4.7588882c1.3075562 1.2771454 3.066162 2.2603455 5.275818 2.9496002c2.219818 0.6791153 5.0072327 1.0490875 8.362274 1.1099014l1.5964355 -9.335335c-1.5001526 -0.18244934 -2.7316895 -0.44599152 -3.6946106 -0.79061127c-0.96292114 -0.34462738 -1.7282104 -0.84129333 -2.295807 -1.4900055c-0.5574951 -0.6588516 -0.9477234 -1.4545364 -1.1707153 -2.3870468c-0.2128601 -0.93252563 -0.31930542 -2.0829697 -0.31930542 -3.4513397l0 -55.966404z" fill-rule="evenodd"/><path fill="#ffffff" d="m448.1354 75.80856c1.6825867 0 3.1320496 0.29901886 4.3483887 0.89704895c1.2163086 0.5878906 2.2400513 1.3987808 3.071228 2.4326553c0.8412781 1.0237427 1.4798584 2.2350082 1.9157104 3.633789c0.43585205 1.3987808 0.6537781 2.8786469 0.6537781 4.4396057l-21.012115 0c0.1824646 -1.429184 0.5220337 -2.8279648 1.0186768 -4.1963425c0.5068054 -1.3785019 1.2112732 -2.5948334 2.1133728 -3.6489868c0.9021301 -1.0642929 2.006958 -1.9207916 3.3145142 -2.5694962c1.3075562 -0.658844 2.8330383 -0.9882736 4.5764465 -0.9882736zm-0.09121704 -9.426559c-2.8685303 0 -5.6711426 0.547348 -8.407898 1.6420441c-2.7367249 1.0845642 -5.164337 2.701271 -7.282776 4.8501205c-2.1184387 2.1488495 -3.8162231 4.845047 -5.093384 8.0886c-1.2771301 3.2334137 -1.9157104 6.99897 -1.9157104 11.296669c0 3.6692657 0.49667358 7.0445786 1.4899902 10.125946c1.003479 3.0813675 2.5289612 5.7623672 4.5764465 8.042984c2.0576172 2.270485 4.6727295 4.044304 7.845337 5.3214493c3.1827393 1.2771454 6.922943 1.9157181 11.220642 1.9157181c1.6825867 0 3.329712 -0.09629059 4.941345 -0.2888794c1.6217651 -0.18244934 3.1320496 -0.41558075 4.5308228 -0.6993866c1.4089355 -0.273674 2.6556702 -0.58283234 3.7402344 -0.9274521c1.094696 -0.34462738 1.9512024 -0.6740494 2.5694885 -0.988266l-1.4899902 -9.244118c-1.3075562 0.5574875 -3.101654 1.0896301 -5.382263 1.5964355c-2.2705078 0.49666595 -4.774109 0.74500275 -7.5108643 0.74500275c-4.6727295 0 -8.240631 -1.0744247 -10.703705 -3.2232742c-2.4529114 -2.148857 -3.8364868 -5.1846085 -4.1507263 -9.107277l32.232758 0c0.060821533 -0.62844086 0.10644531 -1.3278275 0.13684082 -2.0981674c0.030395508 -0.78047943 0.04562378 -1.4849396 0.04562378 -2.1133728c0 -8.281189 -1.885315 -14.5047455 -5.655945 -18.670677c-3.77063 -4.1760635 -9.016052 -6.264099 -15.736267 -6.264099z" fill-rule="evenodd"/><path fill="#ffffff" d="m500.441 66.56445c-3.98349 0 -7.612213 0.35983276 -10.886169 1.0794983c-3.2638245 0.70952606 -5.9853516 1.4697266 -8.164612 2.2806168l0 46.524635l11.311859 0l0 -39.13543c0.5574951 -0.1925888 1.535614 -0.41051483 2.9344177 -0.6537781c1.3987732 -0.2534027 2.721527 -0.38010406 3.9682617 -0.38010406c2.1792603 0 4.0949707 0.1723175 5.747162 0.5169449c1.6521912 0.34462738 2.944519 0.66897583 3.8770447 0.9730606l1.9613342 -9.517784c-0.5574646 -0.1925888 -1.3075562 -0.39530945 -2.2502136 -0.6081619c-0.9324951 -0.22299957 -1.8954468 -0.41051483 -2.8887634 -0.5625534c-0.99334717 -0.1520462 -1.9917603 -0.273674 -2.9952087 -0.36489868c-0.99334717 -0.101364136 -1.8650513 -0.1520462 -2.6151123 -0.1520462z" fill-rule="evenodd"/><path fill="#ffffff" d="m560.05005 61.243008c2.3009033 0 4.4142456 0.17231369 6.340088 0.5169411c1.9360352 0.33449173 3.6033936 0.9071808 5.0021973 1.7180672c1.3987427 0.8108864 2.4732056 1.9055824 3.2232666 3.284092c0.75006104 1.36837 1.1251221 3.0458908 1.1251221 5.03257c0 2.1184387 -0.37506104 3.861847 -1.1251221 5.230217c-0.75006104 1.36837 -1.8549194 2.4580002 -3.3145142 3.2688904c-1.4595947 0.81088257 -3.2789917 1.373436 -5.458252 1.6876602c-2.1792603 0.3142166 -4.703186 0.47132874 -7.5716553 0.47132874l-5.139038 0l0 -20.936092c2.1184692 -0.18244934 4.4244385 -0.273674 6.9179077 -0.273674zm-0.8514404 -10.186768c-2.5441895 0 -5.4379883 0.11149979 -8.68158 0.33449173c-3.2333984 0.2128601 -6.284363 0.6335068 -9.152893 1.2619438l0 63.796528l11.768005 0l0 -24.478645l7.465271 0c0.62841797 0 1.378479 -0.030410767 2.250183 -0.09122467c1.1859131 1.5001373 2.4630737 3.1979294 3.831421 5.093384c1.3684082 1.8954468 2.7519531 3.917595 4.150757 6.0664444c1.4089355 2.148857 2.7975464 4.3635864 4.1659546 6.644203c1.3683472 2.2704926 2.6455078 4.525772 3.831421 6.7658386l13.166748 0c-1.125061 -2.4326553 -2.4022217 -4.905861 -3.831421 -7.4196167c-1.4291992 -2.52388 -2.9242554 -4.98188 -4.4852295 -7.3740005c-1.5507812 -2.4022522 -3.076294 -4.632187 -4.576416 -6.6898193c-1.4900513 -2.0576248 -2.828003 -3.801033 -4.013916 -5.230217c8.65625 -3.1117783 12.984314 -9.061661 12.984314 -17.849648c0 -7.0344467 -2.4782715 -12.2646675 -7.4348145 -15.690666c-4.946411 -3.4259949 -12.092346 -5.138996 -21.437805 -5.138996z" fill-rule="evenodd"/><path fill="#ffffff" d="m620.67126 75.80856c1.6826172 0 3.13208 0.29901886 4.3483887 0.89704895c1.2163086 0.5878906 2.2400513 1.3987808 3.071228 2.4326553c0.8413086 1.0237427 1.4798584 2.2350082 1.9157104 3.633789c0.43585205 1.3987808 0.6538086 2.8786469 0.6538086 4.4396057l-21.012085 0c0.18243408 -1.429184 0.52197266 -2.8279648 1.0186768 -4.1963425c0.5067749 -1.3785019 1.2112427 -2.5948334 2.1133423 -3.6489868c0.9020996 -1.0642929 2.006958 -1.9207916 3.3145142 -2.5694962c1.3075562 -0.658844 2.8330078 -0.9882736 4.576416 -0.9882736zm-0.09118652 -9.426559c-2.8685303 0 -5.6711426 0.547348 -8.407898 1.6420441c-2.7367554 1.0845642 -5.1643677 2.701271 -7.282776 4.8501205c-2.1184692 2.1488495 -3.8162231 4.845047 -5.093384 8.0886c-1.2771606 3.2334137 -1.9157104 6.99897 -1.9157104 11.296669c0 3.6692657 0.49664307 7.0445786 1.4899902 10.125946c1.003479 3.0813675 2.5289307 5.7623672 4.576416 8.042984c2.0576172 2.270485 4.6727295 4.044304 7.845337 5.3214493c3.1827393 1.2771454 6.9229736 1.9157181 11.220642 1.9157181c1.6826172 0 3.329712 -0.09629059 4.941345 -0.2888794c1.6218262 -0.18244934 3.13208 -0.41558075 4.5308228 -0.6993866c1.4089355 -0.273674 2.6557007 -0.58283234 3.7402344 -0.9274521c1.0947266 -0.34462738 1.9511719 -0.6740494 2.569519 -0.988266l-1.4899902 -9.244118c-1.3075562 0.5574875 -3.1016846 1.0896301 -5.382263 1.5964355c-2.2705078 0.49666595 -4.774109 0.74500275 -7.5108643 0.74500275c-4.6727295 0 -8.240662 -1.0744247 -10.703735 -3.2232742c-2.4528809 -2.148857 -3.8364868 -5.1846085 -4.150696 -9.107277l32.232727 0c0.06085205 -0.62844086 0.10644531 -1.3278275 0.13684082 -2.0981674c0.030456543 -0.78047943 0.045654297 -1.4849396 0.045654297 -2.1133728c0 -8.281189 -1.885315 -14.5047455 -5.655945 -18.670677c-3.77063 -4.1760635 -9.016052 -6.264099 -15.736267 -6.264099z" fill-rule="evenodd"/><path fill="#ffffff" d="m671.9582 76.27989c5.0477905 0 8.706909 1.4038467 10.977417 4.211548c2.2704468 2.7975616 3.4057007 6.7202225 3.4057007 11.767998c0 4.733551 -0.9528198 8.504173 -2.8583984 11.311867c-1.8954468 2.7975616 -4.895691 4.1963425 -9.0008545 4.1963425c-1.8751221 0 -3.638794 -0.2939453 -5.2910156 -0.88183594c-1.6420288 -0.5980377 -2.9597168 -1.2416763 -3.953064 -1.9309311l0 -27.929985c1.1149902 -0.30408478 2.2451172 -0.5017319 3.390503 -0.59295654c1.1555176 -0.101364136 2.265442 -0.1520462 3.329712 -0.1520462zm1.1251221 -9.715439c-3.7402344 0 -7.2929077 0.28381348 -10.658081 0.8514328c-3.3651733 0.5574875 -6.198242 1.1453781 -8.4991455 1.7636795l0 64.55673l11.31189 0l0 -18.974747c1.2365723 0.68925476 2.81781 1.3126221 4.7437134 1.8701019c1.9359741 0.56762695 4.0594482 0.8514328 6.3704834 0.8514328c3.4260254 0 6.4921875 -0.6233673 9.198486 -1.8701096c2.7063599 -1.2467346 4.96167 -2.9901428 6.765869 -5.230217c1.8041992 -2.2502136 3.1878052 -4.9312134 4.150757 -8.042984c0.97302246 -3.1117783 1.4595947 -6.537781 1.4595947 -10.277992c0 -3.9226685 -0.5777588 -7.4550934 -1.7332764 -10.597282c-1.1453857 -3.142189 -2.7925415 -5.818115 -4.941345 -8.027779c-2.1488647 -2.2096634 -4.7487793 -3.907463 -7.7997437 -5.093384c-3.0509644 -1.1859207 -6.5073853 -1.7788849 -10.369202 -1.7788849z" fill-rule="evenodd"/><path fill="#ffffff" d="m730.33936 76.18867c3.7402344 0 6.649292 1.4190521 8.727173 4.2571564c2.0880737 2.8279724 3.13208 6.669548 3.13208 11.5247345c0 4.92614 -1.0440063 8.823463 -3.13208 11.691971c-2.0778809 2.8583832 -4.9869385 4.287567 -8.727173 4.287567c-3.7401733 0 -6.654297 -1.429184 -8.742371 -4.287567c-2.0778809 -2.8685074 -3.1168213 -6.765831 -3.1168213 -11.691971c0 -4.8551865 1.0389404 -8.696762 3.1168213 -11.5247345c2.0880737 -2.8381042 5.0021973 -4.2571564 8.742371 -4.2571564zm0 -9.8066635c-3.4259644 0 -6.573242 0.60816956 -9.441711 1.8244934c-2.8583984 1.2061996 -5.331604 2.9344025 -7.4196167 5.1846085c-2.0880737 2.2400742 -3.7098389 4.9312057 -4.8653564 8.073395c-1.1453857 3.142189 -1.7180786 6.644203 -1.7180786 10.506058c0 3.861847 0.5726929 7.3841324 1.7180786 10.566872c1.1555176 3.1725922 2.762085 5.8789215 4.819702 8.119003c2.0576782 2.2400742 4.515625 3.9834824 7.3740234 5.230217c2.8685303 1.2467422 6.0461426 1.8701096 9.532959 1.8701096c3.4868774 0 6.6797485 -0.6233673 9.578613 -1.8701096c2.8989258 -1.2467346 5.3721313 -2.9901428 7.4196167 -5.230217c2.0576782 -2.2400818 3.643982 -4.946411 4.758911 -8.119003c1.1251221 -3.1827393 1.6876831 -6.7050247 1.6876831 -10.566872c0 -3.8618546 -0.5777588 -7.3638687 -1.7332764 -10.506058c-1.1453857 -3.142189 -2.7469482 -5.8333206 -4.8045044 -8.073395c-2.0576782 -2.250206 -4.5359497 -3.9784088 -7.4348145 -5.1846085c-2.888794 -1.2163239 -6.0462036 -1.8244934 -9.472229 -1.8244934z" fill-rule="evenodd"/><path fill="#ffffff" d="m784.51337 66.56445c-3.9834595 0 -7.6121826 0.35983276 -10.886169 1.0794983c-3.263794 0.70952606 -5.9853516 1.4697266 -8.164612 2.2806168l0 46.524635l11.31189 0l0 -39.13543c0.5574341 -0.1925888 1.5355835 -0.41051483 2.9343872 -0.6537781c1.3988037 -0.2534027 2.7215576 -0.38010406 3.9682617 -0.38010406c2.1792603 0 4.0949707 0.1723175 5.7471924 0.5169449c1.6521606 0.34462738 2.944519 0.66897583 3.8770142 0.9730606l1.9613647 -9.517784c-0.5574951 -0.1925888 -1.3075562 -0.39530945 -2.2502441 -0.6081619c-0.9324951 -0.22299957 -1.8954468 -0.41051483 -2.888794 -0.5625534c-0.99328613 -0.1520462 -1.9916992 -0.273674 -2.9951782 -0.36489868c-0.99334717 -0.101364136 -1.8650513 -0.1520462 -2.6151123 -0.1520462z" fill-rule="evenodd"/><path fill="#ffffff" d="m813.8578 52.835125l-11.311829 1.8701096l0 42.31309c0 3.2435532 0.27874756 6.127266 0.83618164 8.651154c0.56762695 2.5137482 1.5356445 4.6575317 2.9039917 6.431343c1.3684082 1.7738113 3.2182007 3.1320496 5.5494995 4.074707c2.3414917 0.93252563 5.255554 1.3987808 8.742432 1.3987808c2.8684692 0 5.3568726 -0.29901123 7.46521 -0.8970413c2.1184692 -0.5878906 3.831421 -1.1605759 5.138977 -1.718071l-1.8549194 -8.970436c-0.94262695 0.37503815 -2.2096558 0.78047943 -3.8010254 1.2163315c-1.5812378 0.43585205 -3.4006348 0.6537781 -5.458252 0.6537781c-2.9901733 0 -5.1085815 -0.84129333 -6.3553467 -2.5238876c-1.2366333 -1.6825867 -1.8549194 -4.485214 -1.8549194 -8.407883l0 -19.902206l17.36316 0l0 -9.426559l-17.36316 0l0 -14.76321z" fill-rule="evenodd"/><path stroke="#000000" stroke-width="1.0" stroke-linejoin="round" stroke-linecap="butt" d="m40.57218 51.71002l0 10.186768l19.902206 0l0 54.552418l11.859222 0l0 -54.552418l19.902206 0l0 -10.186768z" fill-rule="evenodd"/><path stroke="#000000" stroke-width="1.0" stroke-linejoin="round" stroke-linecap="butt" d="m111.946045 43.955914l-11.311874 1.8701057l0 70.623184l11.311874 0l0 -38.861755c0.73992157 -0.24326324 1.8853073 -0.5220032 3.4361343 -0.8362274c1.5609436 -0.3142166 3.091484 -0.47132874 4.5916443 -0.47132874c1.9258499 0 3.5425644 0.2686081 4.8501205 0.8058243c1.3075485 0.5270767 2.3515625 1.36837 3.1320496 2.52388c0.78048706 1.1453781 1.3430328 2.6353836 1.6876526 4.4700165c0.34461975 1.8346329 0.51693726 4.0595016 0.51693726 6.674614l0 25.694977l11.296677 0l0 -27.458656c0 -3.365181 -0.32940674 -6.4161453 -0.988266 -9.152885c-0.6486969 -2.7468796 -1.7535248 -5.0984573 -3.314499 -7.054718c-1.550827 -1.9664001 -3.6185913 -3.4918823 -6.203293 -4.5764465c-2.5847015 -1.094696 -5.8383865 -1.6420441 -9.761047 -1.6420441c-1.6217651 0 -3.2587357 0.15711212 -4.9109344 0.47132874c-1.6521759 0.31422424 -3.0965652 0.68925476 -4.3331757 1.1251068l0 -24.204975z" fill-rule="evenodd"/><path stroke="#000000" stroke-width="1.0" stroke-linejoin="round" stroke-linecap="butt" d="m175.08589 75.80856c1.6825714 0 3.1320496 0.29901886 4.3483734 0.89704895c1.2163391 0.5878906 2.2400818 1.3987808 3.071228 2.4326553c0.8413086 1.0237427 1.4798889 2.2350082 1.9157257 3.633789c0.4358368 1.3987808 0.6537781 2.8786469 0.6537781 4.4396057l-21.0121 0c0.18244934 -1.429184 0.52201843 -2.8279648 1.0186768 -4.1963425c0.5068054 -1.3785019 1.2112732 -2.5948334 2.1133728 -3.6489868c0.90211487 -1.0642929 2.0069427 -1.9207916 3.314499 -2.5694962c1.3075562 -0.658844 2.8330383 -0.9882736 4.5764465 -0.9882736zm-0.0912323 -9.426559c-2.8684998 0 -5.6711426 0.547348 -8.407883 1.6420441c-2.73674 1.0845642 -5.164322 2.701271 -7.282776 4.8501205c-2.118454 2.1488495 -3.8162384 4.845047 -5.093384 8.0886c-1.2771454 3.2334137 -1.9157257 6.99897 -1.9157257 11.296669c0 3.6692657 0.49665833 7.0445786 1.4900055 10.125946c1.003479 3.0813675 2.5289612 5.7623672 4.5764465 8.042984c2.0576324 2.270485 4.6727448 4.044304 7.845337 5.3214493c3.1827393 1.2771454 6.922943 1.9157181 11.220642 1.9157181c1.6825867 0 3.3296967 -0.09629059 4.941345 -0.2888794c1.6217651 -0.18244934 3.1320496 -0.41558075 4.5308228 -0.6993866c1.4089203 -0.273674 2.6556702 -0.58283234 3.740219 -0.9274521c1.094696 -0.34462738 1.9511871 -0.6740494 2.5695038 -0.988266l-1.4900055 -9.244118c-1.3075562 0.5574875 -3.101654 1.0896301 -5.382263 1.5964355c-2.2704926 0.49666595 -4.7740936 0.74500275 -7.510849 0.74500275c-4.6727448 0 -8.240631 -1.0744247 -10.703705 -3.2232742c-2.452942 -2.148857 -3.8365173 -5.1846085 -4.1507263 -9.107277l32.232758 0c0.060821533 -0.62844086 0.10643005 -1.3278275 0.13684082 -2.0981674c0.030410767 -0.78047943 0.04560852 -1.4849396 0.04560852 -2.1133728c0 -8.281189 -1.885315 -14.5047455 -5.6559296 -18.670677c-3.77063 -4.1760635 -9.016052 -6.264099 -15.736282 -6.264099z" fill-rule="evenodd"/><path stroke="#000000" stroke-width="1.0" stroke-linejoin="round" stroke-linecap="butt" d="m250.66217 60.680454c4.2368927 0 7.6781006 0.6537781 10.323608 1.9613342c2.6455078 1.3075562 3.9682617 3.5172234 3.9682617 6.6290016c0 3.3043594 -1.2771301 5.5951233 -3.831421 6.8722687c-2.5542908 1.2771454 -6.071518 1.9157181 -10.551666 1.9157181l-8.316666 0l0 -16.998219c0.9933319 -0.13177109 2.189392 -0.22806168 3.5881805 -0.28887558c1.4089203 -0.06081772 3.0154877 -0.091228485 4.819702 -0.091228485zm1.9613342 26.622433c4.733551 0 8.438293 0.7196655 11.114227 2.158989c2.6759338 1.429184 4.0138855 3.9784088 4.0138855 7.6476746c0 2.0576324 -0.4510498 3.740219 -1.3531799 5.0477753c-0.9020996 1.3075562 -2.1184387 2.3515701 -3.6489868 3.1320496c-1.5204163 0.78047943 -3.324646 1.3278275 -5.4126587 1.6420441c-2.0880432 0.30408478 -4.3433075 0.45612335 -6.7658386 0.45612335c-1.2467499 0 -2.6201782 -0.030403137 -4.120331 -0.09122467c-1.4900055 -0.060813904 -2.8887787 -0.15711212 -4.196335 -0.2888794l0 -19.704552zm-3.4665375 -36.246647c-1.4291992 0 -2.9394684 0.030410767 -4.530838 0.09122467c-1.5812225 0.06081772 -3.182724 0.15711212 -4.8045044 0.2888794c-1.6217804 0.12163544 -3.21315 0.29394913 -4.7740936 0.5169411c-1.550827 0.2128563 -3.0104218 0.4459877 -4.378784 0.6993904l0 62.869076c2.615097 0.6791153 5.6660767 1.1251068 9.152878 1.3379669c3.4868164 0.22299194 6.943207 0.33448792 10.369217 0.33448792c10.024582 0 17.464462 -1.6623154 22.319656 -4.9869537c4.865326 -3.3347778 7.298004 -8.336929 7.298004 -15.006477c0 -3.9226608 -0.93759155 -7.1611404 -2.8127747 -9.715439c-1.8650513 -2.5542908 -4.7588806 -4.485214 -8.681549 -5.7927704c2.6151123 -1.3075562 4.652466 -3.0509644 6.1120605 -5.2302246c1.4697266 -2.1792526 2.2045898 -4.794365 2.2045898 -7.8453293c0 -3.2942276 -0.6892395 -6.0613823 -2.0677795 -8.301456c-1.3683472 -2.2502098 -3.2840881 -4.0595016 -5.7471313 -5.4278717c-2.452942 -1.3683739 -5.3619995 -2.3465042 -8.727173 -2.9343987c-3.355072 -0.5980301 -6.998993 -0.89704514 -10.931778 -0.89704514z" fill-rule="evenodd"/><path stroke="#000000" stroke-width="1.0" stroke-linejoin="round" stroke-linecap="butt" d="m290.91672 67.598335l0 27.367432c0 3.304367 0.3395691 6.340126 1.0186768 9.107277c0.68927 2.7671509 1.8295593 5.149132 3.420929 7.1459427c1.5913696 1.9968109 3.7098083 3.5577621 6.3553467 4.682869c2.6455078 1.114975 5.929596 1.6724548 9.852264 1.6724548c4.176056 0 8.007507 -0.29901123 11.494324 -0.8970413c3.4868164 -0.5878906 6.3198547 -1.1605759 8.499115 -1.718071l0 -47.360863l-11.31189 0l0 39.515533c-0.7399292 0.18244934 -1.8751526 0.33956146 -3.4057312 0.47132874c-1.5203857 0.12163544 -2.9698486 0.18244934 -4.348358 0.18244934c-3.7908936 0 -6.4516296 -1.1200333 -7.9821777 -3.360115c-1.5204163 -2.250206 -2.2806091 -5.990425 -2.2806091 -11.220642l0 -25.588554z" fill-rule="evenodd"/><path stroke="#000000" stroke-width="1.0" stroke-linejoin="round" stroke-linecap="butt" d="m357.2516 43.955914l-11.311859 1.8701057l0 70.623184l11.311859 0l0 -38.861755c0.7399292 -0.24326324 1.885315 -0.5220032 3.4361267 -0.8362274c1.5609741 -0.3142166 3.0915222 -0.47132874 4.5916443 -0.47132874c1.9258728 0 3.542572 0.2686081 4.850128 0.8058243c1.3075562 0.5270767 2.3515625 1.36837 3.1320496 2.52388c0.78048706 1.1453781 1.3430481 2.6353836 1.6876526 4.4700165c0.344635 1.8346329 0.51693726 4.0595016 0.51693726 6.674614l0 25.694977l11.296692 0l0 -27.458656c0 -3.365181 -0.32943726 -6.4161453 -0.98828125 -9.152885c-0.64871216 -2.7468796 -1.75354 -5.0984573 -3.3145142 -7.054718c-1.5508118 -1.9664001 -3.6185608 -3.4918823 -6.2032776 -4.5764465c-2.5846863 -1.094696 -5.838379 -1.6420441 -9.761047 -1.6420441c-1.6217651 0 -3.2587585 0.15711212 -4.910919 0.47132874c-1.6521912 0.31422424 -3.0965881 0.68925476 -4.333191 1.1251068l0 -24.204975z" fill-rule="evenodd"/><path stroke="#000000" stroke-width="1.0" stroke-linejoin="round" stroke-linecap="butt" d="m411.42096 43.955914l-11.296661 1.8701057l0 56.24008c0 2.4225235 0.2635193 4.5865784 0.7906189 6.4921646c0.5270691 1.8954391 1.444397 3.4817429 2.7519531 4.7588882c1.3075562 1.2771454 3.066162 2.2603455 5.275818 2.9496002c2.219818 0.6791153 5.0072327 1.0490875 8.362274 1.1099014l1.5964355 -9.335335c-1.5001526 -0.18244934 -2.7316895 -0.44599152 -3.6946106 -0.79061127c-0.96292114 -0.34462738 -1.7282104 -0.84129333 -2.295807 -1.4900055c-0.5574951 -0.6588516 -0.9477234 -1.4545364 -1.1707153 -2.3870468c-0.2128601 -0.93252563 -0.31930542 -2.0829697 -0.31930542 -3.4513397l0 -55.966404z" fill-rule="evenodd"/><path stroke="#000000" stroke-width="1.0" stroke-linejoin="round" stroke-linecap="butt" d="m448.1354 75.80856c1.6825867 0 3.1320496 0.29901886 4.3483887 0.89704895c1.2163086 0.5878906 2.2400513 1.3987808 3.071228 2.4326553c0.8412781 1.0237427 1.4798584 2.2350082 1.9157104 3.633789c0.43585205 1.3987808 0.6537781 2.8786469 0.6537781 4.4396057l-21.012115 0c0.1824646 -1.429184 0.5220337 -2.8279648 1.0186768 -4.1963425c0.5068054 -1.3785019 1.2112732 -2.5948334 2.1133728 -3.6489868c0.9021301 -1.0642929 2.006958 -1.9207916 3.3145142 -2.5694962c1.3075562 -0.658844 2.8330383 -0.9882736 4.5764465 -0.9882736zm-0.09121704 -9.426559c-2.8685303 0 -5.6711426 0.547348 -8.407898 1.6420441c-2.7367249 1.0845642 -5.164337 2.701271 -7.282776 4.8501205c-2.1184387 2.1488495 -3.8162231 4.845047 -5.093384 8.0886c-1.2771301 3.2334137 -1.9157104 6.99897 -1.9157104 11.296669c0 3.6692657 0.49667358 7.0445786 1.4899902 10.125946c1.003479 3.0813675 2.5289612 5.7623672 4.5764465 8.042984c2.0576172 2.270485 4.6727295 4.044304 7.845337 5.3214493c3.1827393 1.2771454 6.922943 1.9157181 11.220642 1.9157181c1.6825867 0 3.329712 -0.09629059 4.941345 -0.2888794c1.6217651 -0.18244934 3.1320496 -0.41558075 4.5308228 -0.6993866c1.4089355 -0.273674 2.6556702 -0.58283234 3.7402344 -0.9274521c1.094696 -0.34462738 1.9512024 -0.6740494 2.5694885 -0.988266l-1.4899902 -9.244118c-1.3075562 0.5574875 -3.101654 1.0896301 -5.382263 1.5964355c-2.2705078 0.49666595 -4.774109 0.74500275 -7.5108643 0.74500275c-4.6727295 0 -8.240631 -1.0744247 -10.703705 -3.2232742c-2.4529114 -2.148857 -3.8364868 -5.1846085 -4.1507263 -9.107277l32.232758 0c0.060821533 -0.62844086 0.10644531 -1.3278275 0.13684082 -2.0981674c0.030395508 -0.78047943 0.04562378 -1.4849396 0.04562378 -2.1133728c0 -8.281189 -1.885315 -14.5047455 -5.655945 -18.670677c-3.77063 -4.1760635 -9.016052 -6.264099 -15.736267 -6.264099z" fill-rule="evenodd"/><path stroke="#000000" stroke-width="1.0" stroke-linejoin="round" stroke-linecap="butt" d="m500.441 66.56445c-3.98349 0 -7.612213 0.35983276 -10.886169 1.0794983c-3.2638245 0.70952606 -5.9853516 1.4697266 -8.164612 2.2806168l0 46.524635l11.311859 0l0 -39.13543c0.5574951 -0.1925888 1.535614 -0.41051483 2.9344177 -0.6537781c1.3987732 -0.2534027 2.721527 -0.38010406 3.9682617 -0.38010406c2.1792603 0 4.0949707 0.1723175 5.747162 0.5169449c1.6521912 0.34462738 2.944519 0.66897583 3.8770447 0.9730606l1.9613342 -9.517784c-0.5574646 -0.1925888 -1.3075562 -0.39530945 -2.2502136 -0.6081619c-0.9324951 -0.22299957 -1.8954468 -0.41051483 -2.8887634 -0.5625534c-0.99334717 -0.1520462 -1.9917603 -0.273674 -2.9952087 -0.36489868c-0.99334717 -0.101364136 -1.8650513 -0.1520462 -2.6151123 -0.1520462z" fill-rule="evenodd"/><path stroke="#000000" stroke-width="1.0" stroke-linejoin="round" stroke-linecap="butt" d="m560.05005 61.243008c2.3009033 0 4.4142456 0.17231369 6.340088 0.5169411c1.9360352 0.33449173 3.6033936 0.9071808 5.0021973 1.7180672c1.3987427 0.8108864 2.4732056 1.9055824 3.2232666 3.284092c0.75006104 1.36837 1.1251221 3.0458908 1.1251221 5.03257c0 2.1184387 -0.37506104 3.861847 -1.1251221 5.230217c-0.75006104 1.36837 -1.8549194 2.4580002 -3.3145142 3.2688904c-1.4595947 0.81088257 -3.2789917 1.373436 -5.458252 1.6876602c-2.1792603 0.3142166 -4.703186 0.47132874 -7.5716553 0.47132874l-5.139038 0l0 -20.936092c2.1184692 -0.18244934 4.4244385 -0.273674 6.9179077 -0.273674zm-0.8514404 -10.186768c-2.5441895 0 -5.4379883 0.11149979 -8.68158 0.33449173c-3.2333984 0.2128601 -6.284363 0.6335068 -9.152893 1.2619438l0 63.796528l11.768005 0l0 -24.478645l7.465271 0c0.62841797 0 1.378479 -0.030410767 2.250183 -0.09122467c1.1859131 1.5001373 2.4630737 3.1979294 3.831421 5.093384c1.3684082 1.8954468 2.7519531 3.917595 4.150757 6.0664444c1.4089355 2.148857 2.7975464 4.3635864 4.1659546 6.644203c1.3683472 2.2704926 2.6455078 4.525772 3.831421 6.7658386l13.166748 0c-1.125061 -2.4326553 -2.4022217 -4.905861 -3.831421 -7.4196167c-1.4291992 -2.52388 -2.9242554 -4.98188 -4.4852295 -7.3740005c-1.5507812 -2.4022522 -3.076294 -4.632187 -4.576416 -6.6898193c-1.4900513 -2.0576248 -2.828003 -3.801033 -4.013916 -5.230217c8.65625 -3.1117783 12.984314 -9.061661 12.984314 -17.849648c0 -7.0344467 -2.4782715 -12.2646675 -7.4348145 -15.690666c-4.946411 -3.4259949 -12.092346 -5.138996 -21.437805 -5.138996z" fill-rule="evenodd"/><path stroke="#000000" stroke-width="1.0" stroke-linejoin="round" stroke-linecap="butt" d="m620.67126 75.80856c1.6826172 0 3.13208 0.29901886 4.3483887 0.89704895c1.2163086 0.5878906 2.2400513 1.3987808 3.071228 2.4326553c0.8413086 1.0237427 1.4798584 2.2350082 1.9157104 3.633789c0.43585205 1.3987808 0.6538086 2.8786469 0.6538086 4.4396057l-21.012085 0c0.18243408 -1.429184 0.52197266 -2.8279648 1.0186768 -4.1963425c0.5067749 -1.3785019 1.2112427 -2.5948334 2.1133423 -3.6489868c0.9020996 -1.0642929 2.006958 -1.9207916 3.3145142 -2.5694962c1.3075562 -0.658844 2.8330078 -0.9882736 4.576416 -0.9882736zm-0.09118652 -9.426559c-2.8685303 0 -5.6711426 0.547348 -8.407898 1.6420441c-2.7367554 1.0845642 -5.1643677 2.701271 -7.282776 4.8501205c-2.1184692 2.1488495 -3.8162231 4.845047 -5.093384 8.0886c-1.2771606 3.2334137 -1.9157104 6.99897 -1.9157104 11.296669c0 3.6692657 0.49664307 7.0445786 1.4899902 10.125946c1.003479 3.0813675 2.5289307 5.7623672 4.576416 8.042984c2.0576172 2.270485 4.6727295 4.044304 7.845337 5.3214493c3.1827393 1.2771454 6.9229736 1.9157181 11.220642 1.9157181c1.6826172 0 3.329712 -0.09629059 4.941345 -0.2888794c1.6218262 -0.18244934 3.13208 -0.41558075 4.5308228 -0.6993866c1.4089355 -0.273674 2.6557007 -0.58283234 3.7402344 -0.9274521c1.0947266 -0.34462738 1.9511719 -0.6740494 2.569519 -0.988266l-1.4899902 -9.244118c-1.3075562 0.5574875 -3.1016846 1.0896301 -5.382263 1.5964355c-2.2705078 0.49666595 -4.774109 0.74500275 -7.5108643 0.74500275c-4.6727295 0 -8.240662 -1.0744247 -10.703735 -3.2232742c-2.4528809 -2.148857 -3.8364868 -5.1846085 -4.150696 -9.107277l32.232727 0c0.06085205 -0.62844086 0.10644531 -1.3278275 0.13684082 -2.0981674c0.030456543 -0.78047943 0.045654297 -1.4849396 0.045654297 -2.1133728c0 -8.281189 -1.885315 -14.5047455 -5.655945 -18.670677c-3.77063 -4.1760635 -9.016052 -6.264099 -15.736267 -6.264099z" fill-rule="evenodd"/><path stroke="#000000" stroke-width="1.0" stroke-linejoin="round" stroke-linecap="butt" d="m671.9582 76.27989c5.0477905 0 8.706909 1.4038467 10.977417 4.211548c2.2704468 2.7975616 3.4057007 6.7202225 3.4057007 11.767998c0 4.733551 -0.9528198 8.504173 -2.8583984 11.311867c-1.8954468 2.7975616 -4.895691 4.1963425 -9.0008545 4.1963425c-1.8751221 0 -3.638794 -0.2939453 -5.2910156 -0.88183594c-1.6420288 -0.5980377 -2.9597168 -1.2416763 -3.953064 -1.9309311l0 -27.929985c1.1149902 -0.30408478 2.2451172 -0.5017319 3.390503 -0.59295654c1.1555176 -0.101364136 2.265442 -0.1520462 3.329712 -0.1520462zm1.1251221 -9.715439c-3.7402344 0 -7.2929077 0.28381348 -10.658081 0.8514328c-3.3651733 0.5574875 -6.198242 1.1453781 -8.4991455 1.7636795l0 64.55673l11.31189 0l0 -18.974747c1.2365723 0.68925476 2.81781 1.3126221 4.7437134 1.8701019c1.9359741 0.56762695 4.0594482 0.8514328 6.3704834 0.8514328c3.4260254 0 6.4921875 -0.6233673 9.198486 -1.8701096c2.7063599 -1.2467346 4.96167 -2.9901428 6.765869 -5.230217c1.8041992 -2.2502136 3.1878052 -4.9312134 4.150757 -8.042984c0.97302246 -3.1117783 1.4595947 -6.537781 1.4595947 -10.277992c0 -3.9226685 -0.5777588 -7.4550934 -1.7332764 -10.597282c-1.1453857 -3.142189 -2.7925415 -5.818115 -4.941345 -8.027779c-2.1488647 -2.2096634 -4.7487793 -3.907463 -7.7997437 -5.093384c-3.0509644 -1.1859207 -6.5073853 -1.7788849 -10.369202 -1.7788849z" fill-rule="evenodd"/><path stroke="#000000" stroke-width="1.0" stroke-linejoin="round" stroke-linecap="butt" d="m730.33936 76.18867c3.7402344 0 6.649292 1.4190521 8.727173 4.2571564c2.0880737 2.8279724 3.13208 6.669548 3.13208 11.5247345c0 4.92614 -1.0440063 8.823463 -3.13208 11.691971c-2.0778809 2.8583832 -4.9869385 4.287567 -8.727173 4.287567c-3.7401733 0 -6.654297 -1.429184 -8.742371 -4.287567c-2.0778809 -2.8685074 -3.1168213 -6.765831 -3.1168213 -11.691971c0 -4.8551865 1.0389404 -8.696762 3.1168213 -11.5247345c2.0880737 -2.8381042 5.0021973 -4.2571564 8.742371 -4.2571564zm0 -9.8066635c-3.4259644 0 -6.573242 0.60816956 -9.441711 1.8244934c-2.8583984 1.2061996 -5.331604 2.9344025 -7.4196167 5.1846085c-2.0880737 2.2400742 -3.7098389 4.9312057 -4.8653564 8.073395c-1.1453857 3.142189 -1.7180786 6.644203 -1.7180786 10.506058c0 3.861847 0.5726929 7.3841324 1.7180786 10.566872c1.1555176 3.1725922 2.762085 5.8789215 4.819702 8.119003c2.0576782 2.2400742 4.515625 3.9834824 7.3740234 5.230217c2.8685303 1.2467422 6.0461426 1.8701096 9.532959 1.8701096c3.4868774 0 6.6797485 -0.6233673 9.578613 -1.8701096c2.8989258 -1.2467346 5.3721313 -2.9901428 7.4196167 -5.230217c2.0576782 -2.2400818 3.643982 -4.946411 4.758911 -8.119003c1.1251221 -3.1827393 1.6876831 -6.7050247 1.6876831 -10.566872c0 -3.8618546 -0.5777588 -7.3638687 -1.7332764 -10.506058c-1.1453857 -3.142189 -2.7469482 -5.8333206 -4.8045044 -8.073395c-2.0576782 -2.250206 -4.5359497 -3.9784088 -7.4348145 -5.1846085c-2.888794 -1.2163239 -6.0462036 -1.8244934 -9.472229 -1.8244934z" fill-rule="evenodd"/><path stroke="#000000" stroke-width="1.0" stroke-linejoin="round" stroke-linecap="butt" d="m784.51337 66.56445c-3.9834595 0 -7.6121826 0.35983276 -10.886169 1.0794983c-3.263794 0.70952606 -5.9853516 1.4697266 -8.164612 2.2806168l0 46.524635l11.31189 0l0 -39.13543c0.5574341 -0.1925888 1.5355835 -0.41051483 2.9343872 -0.6537781c1.3988037 -0.2534027 2.7215576 -0.38010406 3.9682617 -0.38010406c2.1792603 0 4.0949707 0.1723175 5.7471924 0.5169449c1.6521606 0.34462738 2.944519 0.66897583 3.8770142 0.9730606l1.9613647 -9.517784c-0.5574951 -0.1925888 -1.3075562 -0.39530945 -2.2502441 -0.6081619c-0.9324951 -0.22299957 -1.8954468 -0.41051483 -2.888794 -0.5625534c-0.99328613 -0.1520462 -1.9916992 -0.273674 -2.9951782 -0.36489868c-0.99334717 -0.101364136 -1.8650513 -0.1520462 -2.6151123 -0.1520462z" fill-rule="evenodd"/><path stroke="#000000" stroke-width="1.0" stroke-linejoin="round" stroke-linecap="butt" d="m813.8578 52.835125l-11.311829 1.8701096l0 42.31309c0 3.2435532 0.27874756 6.127266 0.83618164 8.651154c0.56762695 2.5137482 1.5356445 4.6575317 2.9039917 6.431343c1.3684082 1.7738113 3.2182007 3.1320496 5.5494995 4.074707c2.3414917 0.93252563 5.255554 1.3987808 8.742432 1.3987808c2.8684692 0 5.3568726 -0.29901123 7.46521 -0.8970413c2.1184692 -0.5878906 3.831421 -1.1605759 5.138977 -1.718071l-1.8549194 -8.970436c-0.94262695 0.37503815 -2.2096558 0.78047943 -3.8010254 1.2163315c-1.5812378 0.43585205 -3.4006348 0.6537781 -5.458252 0.6537781c-2.9901733 0 -5.1085815 -0.84129333 -6.3553467 -2.5238876c-1.2366333 -1.6825867 -1.8549194 -4.485214 -1.8549194 -8.407883l0 -19.902206l17.36316 0l0 -9.426559l-17.36316 0l0 -14.76321z" fill-rule="evenodd"/></g></svg>